<?xml version="1.0" standalone="no"?><!DOCTYPE svg PUBLIC "-//W3C//DTD SVG 1.1//EN" "http://www.w3.org/Graphics/SVG/1.1/DTD/svg11.dtd"><svg t="1720763771905" class="icon" viewBox="0 0 1024 1024" version="1.1" xmlns="http://www.w3.org/2000/svg" p-id="1520" width="600" height="600" xmlns:xlink="http://www.w3.org/1999/xlink"><path d="M170.666667 170.666667h136.533333v68.266666H238.933333v546.133334h68.266667V853.333333H170.666667V170.666667m614.4 68.266666h-68.266667V170.666667H853.333333v682.666666h-136.533333v-68.266666h68.266667V238.933333m-375.466667 34.133334h34.133333v170.666666h34.133334v34.133334H375.466667v-34.133334h34.133333V307.2l-34.133333 17.066667v-34.133334l34.133333-17.066666m204.8 273.066666h34.133333v170.666667h34.133334v34.133333h-102.4v-34.133333h34.133333v-136.533333l-34.133333 17.066666v-34.133333l34.133333-17.066667m-204.8 0c38.4 0 68.266667 46.933333 68.266667 102.4s-29.866667 102.4-68.266667 102.4S341.333333 704 341.333333 648.533333s29.866667-102.4 68.266667-102.4m0 34.133334c-17.066667 0-34.133333 29.866667-34.133333 68.266666s17.066667 68.266667 34.133333 68.266667 34.133333-29.866667 34.133333-68.266667-17.066667-68.266667-34.133333-68.266666m204.8-307.2c38.4 0 68.266667 46.933333 68.266667 102.4s-29.866667 102.4-68.266667 102.4c-38.4 0-68.266667-46.933333-68.266667-102.4s29.866667-102.4 68.266667-102.4m0 34.133333c-17.066667 0-34.133333 29.866667-34.133333 68.266667s17.066667 68.266667 34.133333 68.266666 34.133333-29.866667 34.133333-68.266666-17.066667-68.266667-34.133333-68.266667z" p-id="1521"></path></svg>